<svg width="83" height="28" viewBox="0 0 83 28" fill="none" xmlns="http://www.w3.org/2000/svg">
<rect width="83" height="28" fill="white"/>
<path d="M10.728 9.456C11.664 9.456 12.496 9.704 13.224 10.2C13.952 10.696 14.46 11.384 14.748 12.264H12.3C12.132 11.936 11.92 11.7 11.664 11.556C11.408 11.412 11.096 11.34 10.728 11.34C10.048 11.34 9.504 11.56 9.096 12C8.696 12.44 8.496 13.028 8.496 13.764C8.496 14.5 8.696 15.088 9.096 15.528C9.504 15.968 10.048 16.188 10.728 16.188C11.096 16.188 11.408 16.116 11.664 15.972C11.92 15.828 12.132 15.592 12.3 15.264H14.748C14.46 16.144 13.952 16.832 13.224 17.328C12.496 17.824 11.664 18.072 10.728 18.072C9.936 18.072 9.208 17.888 8.544 17.52C7.888 17.152 7.368 16.64 6.984 15.984C6.6 15.328 6.408 14.588 6.408 13.764C6.408 12.94 6.6 12.2 6.984 11.544C7.368 10.888 7.888 10.376 8.544 10.008C9.208 9.64 9.936 9.456 10.728 9.456ZM22.6641 11.304V18H20.6121V17.016C20.4121 17.344 20.1361 17.604 19.7841 17.796C19.4401 17.98 19.0401 18.072 18.5841 18.072C18.0801 18.072 17.6321 17.96 17.2401 17.736C16.8561 17.504 16.5521 17.172 16.3281 16.74C16.1121 16.308 16.0041 15.8 16.0041 15.216V11.304H18.0441V14.94C18.0441 15.372 18.1561 15.708 18.3801 15.948C18.6121 16.18 18.9281 16.296 19.3281 16.296C19.7281 16.296 20.0401 16.18 20.2641 15.948C20.4961 15.708 20.6121 15.372 20.6121 14.94V11.304H22.6641ZM28.4864 14.724L31.3544 18H28.6304L26.5184 15.324V18H24.4664V9.12H26.5184V14.1L28.5944 11.304H31.3544L28.4864 14.724ZM38.9062 11.304V18H36.8543V17.016C36.6543 17.344 36.3783 17.604 36.0263 17.796C35.6823 17.98 35.2823 18.072 34.8263 18.072C34.3223 18.072 33.8743 17.96 33.4823 17.736C33.0983 17.504 32.7943 17.172 32.5703 16.74C32.3543 16.308 32.2463 15.8 32.2463 15.216V11.304H34.2863V14.94C34.2863 15.372 34.3983 15.708 34.6223 15.948C34.8543 16.18 35.1703 16.296 35.5703 16.296C35.9703 16.296 36.2823 16.18 36.5063 15.948C36.7383 15.708 36.8543 15.372 36.8543 14.94V11.304H38.9062ZM42.7606 12.552C42.9846 12.144 43.2606 11.824 43.5886 11.592C43.9166 11.352 44.2806 11.232 44.6806 11.232V13.32H44.1766C43.7046 13.32 43.3486 13.432 43.1086 13.656C42.8766 13.88 42.7606 14.272 42.7606 14.832V18H40.7086V11.304H42.7606V12.552ZM45.6145 9.696C45.6145 9.352 45.7305 9.064 45.9625 8.832C46.1945 8.6 46.4785 8.484 46.8145 8.484C47.1505 8.484 47.4345 8.6 47.6665 8.832C47.8985 9.064 48.0145 9.352 48.0145 9.696C48.0145 10.032 47.8985 10.316 47.6665 10.548C47.4345 10.78 47.1505 10.896 46.8145 10.896C46.4785 10.896 46.1945 10.78 45.9625 10.548C45.7305 10.316 45.6145 10.032 45.6145 9.696ZM47.8465 11.304V18H45.7945V11.304H47.8465ZM53.73 11.232C54.234 11.232 54.678 11.348 55.062 11.58C55.454 11.804 55.758 12.132 55.974 12.564C56.198 12.996 56.31 13.504 56.31 14.088V18H54.27V14.364C54.27 13.932 54.154 13.6 53.922 13.368C53.698 13.128 53.386 13.008 52.986 13.008C52.586 13.008 52.27 13.128 52.038 13.368C51.814 13.6 51.702 13.932 51.702 14.364V18H49.65V11.304H51.702V12.288C51.902 11.96 52.174 11.704 52.518 11.52C52.87 11.328 53.274 11.232 53.73 11.232Z" fill="#24616D"/>
<path d="M62.9363 16.584H59.9123L59.4443 18H57.2603L60.1883 9.552H62.6843L65.6003 18H63.4043L62.9363 16.584ZM62.4203 15.024L61.4243 12.024L60.4283 15.024H62.4203ZM66.427 9.696C66.427 9.352 66.543 9.064 66.775 8.832C67.007 8.6 67.291 8.484 67.627 8.484C67.963 8.484 68.247 8.6 68.479 8.832C68.711 9.064 68.827 9.352 68.827 9.696C68.827 10.032 68.711 10.316 68.479 10.548C68.247 10.78 67.963 10.896 67.627 10.896C67.291 10.896 67.007 10.78 66.775 10.548C66.543 10.316 66.427 10.032 66.427 9.696ZM68.659 18.984C68.659 19.792 68.451 20.36 68.035 20.688C67.627 21.024 67.047 21.192 66.295 21.192H65.491V19.452H65.983C66.207 19.452 66.367 19.412 66.463 19.332C66.559 19.26 66.607 19.144 66.607 18.984V11.304H68.659V18.984ZM73.0185 11.232C73.8745 11.232 74.5305 11.548 74.9865 12.18V11.304H77.0385V18H74.9865V17.028C74.4905 17.732 73.8345 18.084 73.0185 18.084C72.4665 18.084 71.9545 17.94 71.4825 17.652C71.0185 17.364 70.6505 16.96 70.3785 16.44C70.1065 15.92 69.9705 15.328 69.9705 14.664C69.9705 14 70.1065 13.408 70.3785 12.888C70.6505 12.368 71.0185 11.964 71.4825 11.676C71.9545 11.38 72.4665 11.232 73.0185 11.232ZM73.5225 13.008C73.2825 13.008 73.0465 13.072 72.8145 13.2C72.5905 13.32 72.4065 13.504 72.2625 13.752C72.1265 14 72.0585 14.304 72.0585 14.664C72.0585 15.024 72.1265 15.328 72.2625 15.576C72.4065 15.816 72.5905 16 72.8145 16.128C73.0385 16.248 73.2745 16.308 73.5225 16.308C73.7625 16.308 73.9945 16.248 74.2185 16.128C74.4505 16 74.6345 15.812 74.7705 15.564C74.9145 15.316 74.9865 15.012 74.9865 14.652C74.9865 14.292 74.9145 13.992 74.7705 13.752C74.6345 13.504 74.4545 13.32 74.2305 13.2C74.0065 13.072 73.7705 13.008 73.5225 13.008Z" fill="#569009"/>
</svg>
